<?xml version="1.0" encoding="utf-8"?>
<!-- Generator: Adobe Illustrator 15.1.0, SVG Export Plug-In . SVG Version: 6.00 Build 0)  -->
<!DOCTYPE svg PUBLIC "-//W3C//DTD SVG 1.1//EN" "http://www.w3.org/Graphics/SVG/1.1/DTD/svg11.dtd">
<svg version="1.1" id="Layer_1" xmlns="http://www.w3.org/2000/svg" xmlns:xlink="http://www.w3.org/1999/xlink" x="0px" y="0px"
	 width="40px" height="40px" viewBox="0 0 40 40" style="enable-background:new 0 0 40 40;" xml:space="preserve">
<style type="text/css">
<![CDATA[
	.st0{fill:#FFFFFF;}
	.st1{fill:#A4C639;}
]]>
</style>
<g>
	<path class="st1" d="M10.5,12.4H9.1v8.9l0,0v9.3c0,0.7,0.6,1.3,1.3,1.3h2.8v5.7c0,1.3,1.1,2.3,2.3,2.3c1.2,0,2.3-1.1,2.3-2.3V32
		h4.3v5.7c0,1.3,1.1,2.3,2.3,2.3c1.2,0,2.3-1.1,2.3-2.3V32h2.8c0.7,0,1.3-0.6,1.3-1.3v-9.3l0,0v-8.9h-1.3H10.5z"/>
	<path class="st1" d="M34.3,11.7C33,11.7,32,12.7,32,14v10.3c0,1.2,1.1,2.3,2.3,2.3c1.3,0,2.3-1.1,2.3-2.3V14
		C36.6,12.7,35.5,11.7,34.3,11.7z"/>
	<path class="st1" d="M5.7,11.7c-1.3,0-2.3,1.1-2.3,2.3v10.3c0,1.2,1.1,2.3,2.3,2.3S8,25.6,8,24.3V14C8,12.7,7,11.7,5.7,11.7z"/>
	<path class="st1" d="M25.2,3L27,0.4c0.1-0.1,0-0.1-0.1-0.3C26.8,0,26.7,0,26.6,0l-1.9,2.8C23.4,2.3,21.9,2,19.9,2
		c-1.9,0-3.5,0.3-4.8,0.8L13.2,0C13.2,0,13.1,0,13,0.1c-0.1,0.1-0.1,0.2-0.1,0.3l1.8,2.6c-5.3,2.4-5.5,8.2-5.5,8.2h21.5
		C30.7,11.1,30.5,5.4,25.2,3z"/>
</g>
<path class="st0" d="M16.6,7.4c0,0.7-0.6,1.3-1.3,1.3c-0.7,0-1.3-0.6-1.3-1.3c0-0.7,0.6-1.3,1.3-1.3C16,6.1,16.6,6.8,16.6,7.4
	L16.6,7.4z"/>
<path class="st0" d="M26,7.4c0,0.7-0.6,1.3-1.3,1.3s-1.3-0.6-1.3-1.3c0-0.7,0.6-1.3,1.3-1.3C25.4,6.2,26,6.8,26,7.4L26,7.4z"/>
</svg>
