<?xml version="1.0" encoding="utf-8"?>
<!-- Generator: Adobe Illustrator 15.1.0, SVG Export Plug-In . SVG Version: 6.00 Build 0)  -->
<!DOCTYPE svg PUBLIC "-//W3C//DTD SVG 1.1//EN" "http://www.w3.org/Graphics/SVG/1.1/DTD/svg11.dtd">
<svg version="1.1" id="Layer_2" xmlns="http://www.w3.org/2000/svg" xmlns:xlink="http://www.w3.org/1999/xlink" x="0px" y="0px"
	 width="40px" height="40px" viewBox="0 0 40 40" style="enable-background:new 0 0 40 40;" xml:space="preserve">
<style type="text/css">
<![CDATA[
	.st0{fill:#C7C7CC;}
]]>
</style>
<g>
	<path class="st0" d="M20.2,10.7c0,0-4.6-3-9-1.2c-4.4,1.8-9.4,7.4-6.9,17c2.4,8.2,5.6,14.5,11.1,13.4c3.7-0.8,3-1.8,5.6-1.6
		c4.1,0.1,4.5,1.7,6.8,1.7c2.3,0,8-5.6,8.7-11.1c0,0-4.4-1.2-5-7.4c-0.7-6.2,4.5-8,4.5-8s-3.7-6.6-11.8-3.6
		C21.2,10.7,20.2,10.7,20.2,10.7z"/>
	<path class="st0" d="M21.2,9c0,0-0.4-6.1,7.9-9C29.2,0,28.8,6.8,21.2,9z"/>
</g>
</svg>
